# xmcd
#
# Track frame offsets:
#	150
#	11966
#	25473
#	35881
#	47235
#	57704
#	68437
#	78536
#	91480
#	100827
#	111489
#	122761
#	133318
#	142928
#	154794
#	167122
#	178180
#	189638
#	201581
#	214774
#
# Disc length: 2993 seconds
#
# Revision: 0
# Processed by: cddbd v1.5.2PL0 Copyright (c) Steve Scherf et al.
# Submitted via: EasyCDDAExtractor 2010.6.0.0
#
DISCID=390baf14
DTITLE=Various Artist - Country Ladies [CD 2)
DYEAR=1900
DGENRE=Country
TTITLE0=Patsy Cline - Walkin' after midnight
TTITLE1=Patsy Cline - Life's Railway to heaven
TTITLE2=Patsy Cline - Three Cigarettes in an Ashtray
TTITLE3=Patsy Cline - Just out of reach
TTITLE4=Patsy Cline - Honky tonk merry-go-round
TTITLE5=Patsy Cline - I cried all the way to the Altar
TTITLE6=Patsy Cline - Walkin' dreams
TTITLE7=Patsy Cline - Fingerprints
TTITLE8=Patsy Cline - Love me, love me honey do
TTITLE9=Patsy Cline - Stop look and listen
TTITLE10=Patsy Cline - The Heart you break may be your own
TTITLE11=Patsy Cline - Too many secrets
TTITLE12=Patsy Cline - I've loved and lost again
TTITLE13=Patsy Cline - In care of the blues
TTITLE14=Dolly Parton - Two little orphans
TTITLE15=Dolly Parton - It wasn't God who made honkytonk angels
TTITLE16=Dolly Parton - Makin' believe
TTITLE17=Dolly Parton - Letter to heaven
TTITLE18=Dolly Parton - Little blossom
TTITLE19=Dolly Parton - Gift left alone
EXTD=
EXTT0=
EXTT1=
EXTT2=
EXTT3=
EXTT4=
EXTT5=
EXTT6=
EXTT7=
EXTT8=
EXTT9=
EXTT10=
EXTT11=
EXTT12=
EXTT13=
EXTT14=
EXTT15=
EXTT16=
EXTT17=
EXTT18=
EXTT19=
PLAYORDER=
